<svg width="84" height="57" viewBox="0 0 84 57" fill="none" xmlns="http://www.w3.org/2000/svg">
<path d="M18.6406 11.2465C17.8556 9.5282 16.7643 8.16648 15.3704 7.1613C13.9711 6.15209 12.401 5.64648 10.6582 5.64648C9.31587 5.64648 8.07506 6.02519 6.9375 6.77857C5.79816 7.52993 4.88847 8.55525 4.20487 9.84849V6.26691H0V33.4127L4.42384 28.407V26.5679L4.33127 24.1063C4.36153 24.1647 4.39179 24.2231 4.42384 24.2815C5.05225 25.4418 5.9032 26.3725 6.98379 27.0775C8.11779 27.8128 9.36216 28.1814 10.7151 28.1814C12.433 28.1814 13.9854 27.6818 15.3704 26.6726C16.7501 25.6674 17.8378 24.3017 18.6317 22.5874C19.4275 20.8672 19.8209 18.9757 19.8209 16.9029C19.8209 14.8542 19.4275 12.9668 18.6406 11.2465ZM14.6832 20.426C14.1812 21.4312 13.5118 22.2087 12.6716 22.7506C11.8295 23.2965 10.9092 23.5705 9.91046 23.5705C8.91176 23.5705 7.98783 23.2804 7.13689 22.7083C6.29128 22.1402 5.61836 21.3466 5.1199 20.3313C4.61788 19.3161 4.36687 18.1759 4.36687 16.9029C4.36687 15.6942 4.61432 14.5742 5.111 13.555C5.60412 12.5357 6.27348 11.7299 7.12265 11.1417C7.96825 10.5575 8.89396 10.2635 9.89266 10.2635C10.9056 10.2635 11.8349 10.5414 12.6805 11.1055C13.5261 11.6614 14.199 12.445 14.6921 13.4502C15.1852 14.4594 15.4309 15.6096 15.4309 16.9029C15.4309 18.2444 15.1799 19.4168 14.6832 20.426Z" fill="#E91B41"/>
<path d="M35.7145 6.27149V9.8712C35.1039 8.54775 34.2049 7.50833 33.0175 6.75696C31.8283 6.0056 30.4664 5.62891 28.9301 5.62891C27.2834 5.62891 25.788 6.13653 24.4404 7.14977C23.0928 8.16501 22.0318 9.53278 21.2592 11.2571C20.4848 12.9814 20.0967 14.8649 20.0967 16.9074C20.0967 18.9621 20.4812 20.8516 21.2503 22.5759C22.0175 24.3002 23.0785 25.666 24.4315 26.6732C25.7845 27.6804 27.2905 28.1839 28.9479 28.1839C30.4718 28.1839 31.8283 27.8113 33.0175 27.066C34.2049 26.3206 35.1039 25.2873 35.7145 23.9618V27.5434H39.9194V6.27149H35.7145ZM34.7995 20.2694C34.3117 21.2827 33.6441 22.0844 32.7967 22.6686C31.9494 23.2568 31.0201 23.5489 30.0089 23.5489C29.0084 23.5489 28.0881 23.2789 27.2478 22.7411C26.4058 22.2032 25.7364 21.4317 25.2362 20.4245C24.7359 19.4174 24.4867 18.245 24.4867 16.9074C24.4867 15.6102 24.7324 14.4579 25.2273 13.4508C25.7204 12.4436 26.388 11.662 27.23 11.102C28.0703 10.544 28.996 10.264 30.0089 10.264C31.0201 10.264 31.9476 10.5621 32.7878 11.1544C33.6299 11.7486 34.2975 12.5503 34.7906 13.5656C35.2837 14.5788 35.5312 15.6928 35.5312 16.9074C35.5312 18.1342 35.2873 19.2562 34.7995 20.2694Z" fill="#FBD1D9"/>
<path d="M50.0827 6.26953C48.8864 6.26953 47.861 6.60996 47.0011 7.29284C46.1413 7.97571 45.4862 8.91844 45.034 10.117V6.26953H40.7917V27.5414H45.2174V17.6488C45.2174 16.1602 45.431 14.885 45.8582 13.8215C46.2837 12.7599 46.8819 11.9521 47.6491 11.4002C48.4182 10.8482 49.3083 10.5723 50.3195 10.5723H52.0943V6.26953H50.0827Z" fill="#FBD1D9"/>
<path d="M59.7582 6.27077V0L55.3326 0.042302V6.27077H51.4375V10.5735H55.3326V19.4509C55.3326 22.5953 55.9236 24.7306 57.1057 25.8546C58.2896 26.9806 59.776 27.5427 61.5687 27.5427H65.3908V23.383H62.4837C60.6661 23.383 59.7582 22.1481 59.7582 19.6785V10.5735H65.3908V6.27077H59.7582Z" fill="#FBD1D9"/>
<path d="M78.8152 6.28967L74.4625 19.1596L73.9694 21.3331L73.4941 19.1394L69.0685 6.26953H64.4043L65.3905 9.04535L71.6106 26.5483L71.3899 27.2715C71.1104 28.0994 70.8255 28.7541 70.5407 29.2375C70.2541 29.719 69.8998 30.0775 69.4797 30.3132C69.0578 30.5469 68.5255 30.6657 67.8793 30.6657H65.3905V34.8033H67.9167C69.3658 34.8033 70.5585 34.5938 71.4913 34.1728C72.4242 33.7518 73.2555 32.9923 73.9872 31.8965C74.7189 30.8007 75.4559 29.1892 76.2 27.064L83.5327 6.26953L78.8152 6.28967Z" fill="#FBD1D9"/>
<path d="M19.1338 35.6519C18.9949 35.2208 18.8276 34.8058 18.6406 34.3949C17.8556 32.6766 16.7643 31.3149 15.3704 30.3057C15.0909 30.1043 14.8078 29.927 14.5159 29.7679C14.4696 29.7417 14.4233 29.7155 14.3752 29.6954C13.7344 29.3529 13.065 29.1112 12.36 28.9702C11.8117 28.8533 11.2438 28.7949 10.6582 28.7949C9.69684 28.7949 8.78715 28.9903 7.9362 29.3751C7.60152 29.5261 7.27574 29.7054 6.95531 29.9149C5.82665 30.6562 4.949 31.6513 4.31168 32.8922L4.39891 30.7227L0 35.7002V50.6892H4.20487V47.1077C4.85109 48.4231 5.75722 49.4524 6.91792 50.2038C8.08396 50.9572 9.34792 51.3298 10.7151 51.3298C12.433 51.3298 13.9854 50.8242 15.3704 49.821C16.7501 48.8118 17.8378 47.4501 18.6317 45.7359C18.8222 45.331 18.986 44.91 19.1284 44.4849C19.1284 44.4789 19.1338 44.4789 19.1338 44.4749C19.5931 43.1011 19.8209 41.6306 19.8209 40.0533C19.8209 38.4861 19.5931 37.0196 19.1338 35.6519ZM14.6832 43.5704C14.1812 44.5796 13.5118 45.3511 12.6716 45.899C11.8295 46.4449 10.9092 46.7189 9.91046 46.7189C8.91176 46.7189 7.98783 46.4288 7.13689 45.8567C6.29128 45.2826 5.61836 44.489 5.1199 43.4798C4.61788 42.4645 4.36687 41.3244 4.36687 40.0533C4.36687 38.8386 4.61432 37.7227 5.111 36.7034C5.60412 35.6781 6.27348 34.8784 7.12265 34.2902C7.74038 33.8651 8.40618 33.5912 9.10759 33.4743C9.36216 33.432 9.62207 33.4119 9.89266 33.4119C10.1668 33.4119 10.4356 33.432 10.6955 33.4743C11.4023 33.5851 12.0627 33.843 12.6805 34.2479C13.5261 34.8058 14.199 35.5935 14.6921 36.5986C15.1852 37.6078 15.4309 38.7581 15.4309 40.0533C15.4309 41.3929 15.1799 42.5652 14.6832 43.5704Z" fill="#FBD1D9"/>
<path d="M35.7751 29.7676V33.0168C35.1662 31.6974 34.2637 30.6559 33.0745 29.9046C32.9997 29.8582 32.9214 29.8099 32.843 29.7676H25.2914C25.0226 29.9267 24.7626 30.104 24.5027 30.2994C23.1551 31.3146 22.0905 32.6804 21.3197 34.4047C21.1381 34.8096 20.9761 35.2266 20.8355 35.6516C20.3851 37.0234 20.1572 38.4899 20.1572 40.053C20.1572 41.6242 20.3815 43.1068 20.8319 44.4847C20.9708 44.9057 21.1292 45.3206 21.3108 45.7255C22.0763 47.4498 23.1355 48.8156 24.4921 49.8208C25.845 50.83 27.3511 51.3295 29.0085 51.3295C30.5323 51.3295 31.8906 50.9609 33.0745 50.2156C34.2637 49.4682 35.1662 48.4328 35.7751 47.1134V50.693H39.9799V29.7676H35.7751ZM34.8583 43.417C34.3705 44.4323 33.7029 45.23 32.8573 45.8202C32.0099 46.4023 31.0806 46.6985 30.0677 46.6985C29.069 46.6985 28.1504 46.4285 27.3084 45.8887C26.4681 45.3508 25.7934 44.5793 25.2967 43.5742C24.7947 42.5649 24.5437 41.3926 24.5437 40.053C24.5437 38.7578 24.7947 37.6076 25.2878 36.5984C25.7791 35.5932 26.4485 34.8096 27.2906 34.2536C28.1308 33.6896 29.0565 33.4116 30.0677 33.4116C31.0806 33.4116 32.0063 33.7117 32.8466 34.2999C33.6887 34.8942 34.358 35.6979 34.8494 36.7132C35.3425 37.7284 35.5935 38.8424 35.5935 40.053C35.5935 41.2818 35.346 42.4018 34.8583 43.417Z" fill="#FBD1D9"/>
<path d="M57.0683 31.4657C56.5716 30.7566 55.9717 30.1946 55.2792 29.7676H47.7114C47.6545 29.7938 47.6046 29.832 47.5477 29.8623C46.3959 30.5874 45.5449 31.5463 44.9966 32.7287V29.7676H40.7917V50.693H45.2156V39.8254C45.2156 38.4899 45.4435 37.3336 45.9027 36.3607C46.3585 35.3877 46.9673 34.6525 47.7203 34.1468C48.4769 33.6433 49.2994 33.3915 50.1913 33.3915C51.5816 33.3915 52.6551 33.8689 53.4081 34.8317C54.1647 35.7886 54.5404 37.2873 54.5404 39.3319V50.693H58.9695V39.2271C58.9695 35.845 58.3322 33.2585 57.0683 31.4657Z" fill="#FBD1D9"/>
<path d="M68.5473 43.3989L74.1372 35.3293H68.7521L64.0576 41.9868V29.7676H59.6338V50.693H64.0576V48.4167L65.3269 46.6703L70.2101 56.2547H75.1822L68.5473 43.3989Z" fill="#FBD1D9"/>
<path d="M4.42372 28.4062V28.9018C4.29911 28.8756 4.17449 28.8514 4.0481 28.8313L4.42372 28.4062Z" fill="white"/>
<path d="M72.4283 46.7622C72.4977 44.8143 73.9931 43.1968 75.7039 43.223C77.4894 43.2492 78.951 44.9755 78.9136 47.0221C78.878 49.0526 77.3149 50.7427 75.5561 50.656C73.7616 50.5674 72.3553 48.8149 72.4283 46.7622Z" fill="white"/>
</svg>
